<svg width="800" height="450" viewBox="0 0 800 450" xmlns="http://www.w3.org/2000/svg" style="background-color: #f0f0f0; font-family: 'Segoe UI', Arial, sans-serif;">

  <defs>
    <marker id="arrowhead" markerWidth="10" markerHeight="7" refX="0" refY="3.5" orient="auto">
      <polygon points="0 0, 10 3.5, 0 7" fill="#333" />
    </marker>
    <filter id="papyrusTexture" x="0" y="0" width="100%" height="100%">
      <feTurbulence type="fractalNoise" baseFrequency="0.02 0.05" numOctaves="3" seed="10" stitchTiles="stitch"/>
      <feColorMatrix type="matrix" values="1 0 0 0 0
                                           0 1 0 0 0
                                           0 0 1 0 0
                                           0 0 0 0.3 0" />
      <feComposite operator="in" in2="SourceGraphic" result="textured"/>
      <feBlend in="SourceGraphic" in2="textured" mode="multiply" />
    </filter>
  </defs>

  <!-- Background with subtle papyrus hint (optional) -->
  <rect x="0" y="0" width="800" height="450" fill="#FAF0E6" />
  <!-- <rect x="0" y="0" width="800" height="450" fill="#FAF0E6" filter="url(#papyrusTexture)" /> -->


  <!-- 1. Input: Transliteration -->
  <g id="input-group">
    <rect x="50" y="150" width="200" height="100" rx="10" ry="10" fill="#FFF8DC" stroke="#D2B48C" stroke-width="2"/>
    <text x="150" y="190" font-size="20" text-anchor="middle" fill="#5D4037">j.n.k Hnêœ¥.f</text>
    <text x="150" y="220" font-size="16" text-anchor="middle" fill="#795548">(Transliteration)</text>
    <text x="70" y="180" font-size="28" fill="#A1887F">ğ“</text> <!-- Papyrus scroll hieroglyph -->
  </g>

  <!-- Arrow 1 -->
  <line x1="260" y1="200" x2="330" y2="200" stroke="#333" stroke-width="2.5" marker-end="url(#arrowhead)" />

  <!-- 2. Processing: RoBERTa AI -->
  <g id="ai-processor">
    <!-- Simplified AI/Brain Icon -->
    <circle cx="390" cy="200" r="40" fill="#B0E0E6" stroke="#4682B4" stroke-width="2"/>
    <circle cx="390" cy="200" r="25" fill="none" stroke="#4682B4" stroke-width="1.5" stroke-dasharray="5,3"/>
    <path d="M 380 190 Q 390 175, 400 190 M 380 210 Q 390 225, 400 210 M 375 200 L 405 200"
          stroke="#4682B4" stroke-width="1.5" fill="none"/>
    <text x="390" y="265" font-size="18" text-anchor="middle" fill="#003366" font-weight="bold">RoBERTa</text>
  </g>

  <!-- Arrow 2 -->
  <line x1="430" y1="200" x2="500" y2="200" stroke="#333" stroke-width="2.5" marker-end="url(#arrowhead)" />

  <!-- 3. Output: Historical Periods -->
  <g id="output-periods">
    <text x="650" y="100" font-size="18" text-anchor="middle" fill="#333" font-weight="bold">Historical Periods</text>

    <!-- Predynastic & Early Dynastic -->
    <rect x="520" y="120" width="260" height="35" rx="5" ry="5" fill="#F5DEB3" stroke="#DEB887" stroke-width="1"/>
    <text x="650" y="143" font-size="12" text-anchor="middle" fill="#5D4037">Predynastic and Early Dynastic</text>

    <!-- Old Kingdom & First Intermediate -->
    <rect x="520" y="165" width="260" height="35" rx="5" ry="5" fill="#E0C097" stroke="#CD853F" stroke-width="1"/>
    <text x="650" y="188" font-size="12" text-anchor="middle" fill="#5D4037">Old Kingdom and First Intermediate</text>

    <!-- Middle Kingdom & Second Intermediate -->
    <rect x="520" y="210" width="260" height="35" rx="5" ry="5" fill="#ADD8E6" stroke="#87CEEB" stroke-width="1"/>
    <text x="650" y="233" font-size="12" text-anchor="middle" fill="#2F4F4F">Middle Kingdom and Second Intermediate</text>

    <!-- New Kingdom & Third Intermediate -->
    <rect x="520" y="255" width="260" height="35" rx="5" ry="5" fill="#FFD700" stroke="#DAA520" stroke-width="1"/>
    <text x="650" y="278" font-size="12" text-anchor="middle" fill="#8B4513">New Kingdom and Third Intermediate</text>

    <!-- Late Period & Greco-Roman Egypt -->
    <rect x="520" y="300" width="260" height="35" rx="5" ry="5" fill="#D8BFD8" stroke="#BA55D3" stroke-width="1"/>
    <text x="650" y="323" font-size="12" text-anchor="middle" fill="#4B0082">Late Period and Greco-Roman</text>
  </g>

  <!-- Project Title -->
  <text x="400" y="40" font-size="28" text-anchor="middle" fill="#333" font-weight="bold">roberta-aegyptustranslit-classifier</text>
  <text x="400" y="430" font-size="12" text-anchor="middle" fill="#666">Input Transliteration â†’ AI Classification â†’ Historical Period</text>

</svg>
